<mxfile host="85121a2d-af7c-4806-9160-c52a5fc252f1" modified="2020-08-13T07:57:19.739Z" agent="5.0 (Windows NT 10.0; Win64; x64) AppleWebKit/537.36 (KHTML, like Gecko) Code/1.47.3 Chrome/78.0.3904.130 Electron/7.3.2 Safari/537.36" etag="wX5E5zp0NNBu5aKHq_th" version="13.1.3">
    <diagram id="6hGFLwfOUW9BJ-s0fimq" name="Page-1">
        <mxGraphModel dx="1249" dy="599" grid="0" gridSize="10" guides="1" tooltips="1" connect="1" arrows="1" fold="1" page="1" pageScale="1" pageWidth="827" pageHeight="1169" math="0" shadow="0">
            <root>
                <mxCell id="0"/>
                <mxCell id="1" parent="0"/>
                <mxCell id="11" style="edgeStyle=orthogonalEdgeStyle;rounded=1;comic=0;orthogonalLoop=1;jettySize=auto;html=1;entryX=0;entryY=0.5;entryDx=0;entryDy=0;" parent="1" source="6" target="9" edge="1">
                    <mxGeometry relative="1" as="geometry"/>
                </mxCell>
                <mxCell id="6" value="&lt;div style=&quot;color: rgb(36 , 41 , 46) ; background-color: rgb(255 , 255 , 255) ; font-weight: normal ; font-size: 15px ; line-height: 20px&quot;&gt;&lt;div&gt;&lt;span style=&quot;color: #d73a49&quot;&gt;class&lt;/span&gt;&lt;span style=&quot;color: #24292e&quot;&gt;&amp;nbsp;&lt;/span&gt;&lt;span style=&quot;color: #6f42c1&quot;&gt;UserSchema&lt;/span&gt;&lt;span style=&quot;color: #24292e&quot;&gt;(&lt;/span&gt;&lt;span style=&quot;color: #6f42c1&quot;&gt;Schema&lt;/span&gt;&lt;span style=&quot;color: #24292e&quot;&gt;):&lt;/span&gt;&lt;/div&gt;&lt;div&gt;&lt;span style=&quot;color: #24292e&quot;&gt;&amp;nbsp;&amp;nbsp;&amp;nbsp;&amp;nbsp;username&amp;nbsp;&lt;/span&gt;&lt;span style=&quot;color: #d73a49&quot;&gt;=&lt;/span&gt;&lt;span style=&quot;color: #24292e&quot;&gt;&amp;nbsp;fields.Str()&lt;/span&gt;&lt;/div&gt;&lt;div&gt;&lt;span style=&quot;color: #24292e&quot;&gt;&amp;nbsp;&amp;nbsp;&amp;nbsp;&amp;nbsp;password&amp;nbsp;&lt;/span&gt;&lt;span style=&quot;color: #d73a49&quot;&gt;=&lt;/span&gt;&lt;span style=&quot;color: #24292e&quot;&gt;&amp;nbsp;fields.Str()&lt;/span&gt;&lt;/div&gt;&lt;/div&gt;" style="text;whiteSpace=wrap;html=1;fillColor=none;strokeColor=#6c8ebf;" parent="1" vertex="1">
                    <mxGeometry x="229" y="104" width="204" height="93" as="geometry"/>
                </mxCell>
                <mxCell id="10" style="edgeStyle=orthogonalEdgeStyle;rounded=1;orthogonalLoop=1;jettySize=auto;html=1;comic=0;" parent="1" source="8" target="6" edge="1">
                    <mxGeometry relative="1" as="geometry"/>
                </mxCell>
                <mxCell id="8" value="&lt;!--StartFragment--&gt;&lt;div style=&quot;color: rgb(36, 41, 46); background-color: rgb(255, 255, 255); font-weight: normal; font-size: 15px; line-height: 20px;&quot;&gt;&lt;div&gt;&lt;span style=&quot;color: #24292e;&quot;&gt;User(&lt;/span&gt;&lt;/div&gt;&lt;div&gt;&lt;span style=&quot;color: #24292e;&quot;&gt;&amp;nbsp;&amp;nbsp;&amp;nbsp;&amp;nbsp;&lt;/span&gt;&lt;span style=&quot;color: #e36209;&quot;&gt;username&lt;/span&gt;&lt;span style=&quot;color: #d73a49;&quot;&gt;=&lt;/span&gt;&lt;span style=&quot;color: #032f62;&quot;&gt;'yuz'&lt;/span&gt;&lt;span style=&quot;color: #24292e;&quot;&gt;,&lt;/span&gt;&lt;/div&gt;&lt;div&gt;&lt;span style=&quot;color: #24292e;&quot;&gt;&amp;nbsp;&amp;nbsp;&amp;nbsp;&amp;nbsp;&lt;/span&gt;&lt;span style=&quot;color: #e36209;&quot;&gt;password&lt;/span&gt;&lt;span style=&quot;color: #d73a49;&quot;&gt;=&lt;/span&gt;&lt;span style=&quot;color: #032f62;&quot;&gt;'123'&lt;/span&gt;&lt;/div&gt;&lt;div&gt;&lt;span style=&quot;color: #24292e;&quot;&gt;)&lt;/span&gt;&lt;/div&gt;&lt;/div&gt;&lt;!--EndFragment--&gt;" style="text;whiteSpace=wrap;html=1;fillColor=none;strokeColor=#6c8ebf;" parent="1" vertex="1">
                    <mxGeometry x="46" y="104" width="138" height="94" as="geometry"/>
                </mxCell>
                <mxCell id="9" value="&lt;!--StartFragment--&gt;&lt;div style=&quot;color: rgb(36, 41, 46); background-color: rgb(255, 255, 255); font-weight: normal; font-size: 15px; line-height: 20px;&quot;&gt;&lt;div&gt;&lt;span style=&quot;color: #24292e;&quot;&gt;{&lt;/span&gt;&lt;/div&gt;&lt;div&gt;&lt;span style=&quot;color: #24292e;&quot;&gt;&amp;nbsp;&amp;nbsp;&amp;nbsp;&amp;nbsp;&lt;/span&gt;&lt;span style=&quot;color: #032f62;&quot;&gt;&quot;username&quot;&lt;/span&gt;&lt;span style=&quot;color: #24292e;&quot;&gt;:&lt;/span&gt;&lt;span style=&quot;color: #032f62;&quot;&gt;&quot;yuz&quot;&lt;/span&gt;&lt;span style=&quot;color: #24292e;&quot;&gt;,&amp;nbsp;&lt;/span&gt;&lt;/div&gt;&lt;div&gt;&lt;span style=&quot;color: #24292e;&quot;&gt;&amp;nbsp;&amp;nbsp;&amp;nbsp;&amp;nbsp;&lt;/span&gt;&lt;span style=&quot;color: #032f62;&quot;&gt;&quot;password&quot;&lt;/span&gt;&lt;span style=&quot;color: #24292e;&quot;&gt;:&amp;nbsp;&lt;/span&gt;&lt;span style=&quot;color: #032f62;&quot;&gt;&quot;123&quot;&lt;/span&gt;&lt;/div&gt;&lt;div&gt;&lt;span style=&quot;color: #24292e;&quot;&gt;}&lt;/span&gt;&lt;/div&gt;&lt;/div&gt;&lt;!--EndFragment--&gt;" style="text;whiteSpace=wrap;html=1;fillColor=none;strokeColor=#6c8ebf;" parent="1" vertex="1">
                    <mxGeometry x="570.000048828125" y="103" width="161" height="94" as="geometry"/>
                </mxCell>
                <mxCell id="40" value="" style="edgeStyle=orthogonalEdgeStyle;rounded=1;orthogonalLoop=1;jettySize=auto;html=1;" edge="1" parent="1" source="12" target="9">
                    <mxGeometry relative="1" as="geometry"/>
                </mxCell>
                <mxCell id="12" value="schema.dump(user)" style="text;html=1;strokeColor=none;fillColor=none;align=center;verticalAlign=middle;whiteSpace=wrap;rounded=0;" parent="1" vertex="1">
                    <mxGeometry x="477" y="119" width="40" height="20" as="geometry"/>
                </mxCell>
                <mxCell id="33" value="schema.dump(user)" style="text;html=1;strokeColor=none;fillColor=none;align=center;verticalAlign=middle;whiteSpace=wrap;rounded=0;" vertex="1" parent="1">
                    <mxGeometry x="477" y="219" width="40" height="20" as="geometry"/>
                </mxCell>
                <mxCell id="19" style="edgeStyle=orthogonalEdgeStyle;rounded=1;comic=0;orthogonalLoop=1;jettySize=auto;html=1;" parent="1" source="13" edge="1">
                    <mxGeometry relative="1" as="geometry">
                        <mxPoint x="497" y="110.4000244140625" as="targetPoint"/>
                    </mxGeometry>
                </mxCell>
                <mxCell id="13" value="序列化" style="text;html=1;strokeColor=#d79b00;fillColor=#ffe6cc;align=center;verticalAlign=middle;whiteSpace=wrap;rounded=0;" parent="1" vertex="1">
                    <mxGeometry x="445" y="4" width="104" height="50" as="geometry"/>
                </mxCell>
                <mxCell id="26" style="edgeStyle=orthogonalEdgeStyle;rounded=1;comic=0;orthogonalLoop=1;jettySize=auto;html=1;entryX=0;entryY=0.5;entryDx=0;entryDy=0;" parent="1" source="20" target="25" edge="1">
                    <mxGeometry relative="1" as="geometry"/>
                </mxCell>
                <mxCell id="20" value="&lt;!--StartFragment--&gt;&lt;div style=&quot;color: rgb(36, 41, 46); background-color: rgb(255, 255, 255); font-weight: normal; font-size: 15px; line-height: 20px;&quot;&gt;&lt;div&gt;&lt;span style=&quot;color: #24292e;&quot;&gt;User(&lt;/span&gt;&lt;/div&gt;&lt;div&gt;&lt;span style=&quot;color: #24292e;&quot;&gt;&amp;nbsp;&amp;nbsp;&amp;nbsp;&amp;nbsp;&lt;/span&gt;&lt;span style=&quot;color: #e36209;&quot;&gt;username&lt;/span&gt;&lt;span style=&quot;color: #d73a49;&quot;&gt;=&lt;/span&gt;&lt;span style=&quot;color: #032f62;&quot;&gt;'yuz'&lt;/span&gt;&lt;span style=&quot;color: #24292e;&quot;&gt;,&lt;/span&gt;&lt;/div&gt;&lt;div&gt;&lt;span style=&quot;color: #24292e;&quot;&gt;&amp;nbsp;&amp;nbsp;&amp;nbsp;&amp;nbsp;&lt;/span&gt;&lt;span style=&quot;color: #e36209;&quot;&gt;password&lt;/span&gt;&lt;span style=&quot;color: #d73a49;&quot;&gt;=&lt;/span&gt;&lt;span style=&quot;color: #032f62;&quot;&gt;'123'&lt;/span&gt;&lt;/div&gt;&lt;div&gt;&lt;span style=&quot;color: #24292e;&quot;&gt;)&lt;/span&gt;&lt;/div&gt;&lt;/div&gt;&lt;!--EndFragment--&gt;" style="text;whiteSpace=wrap;html=1;fillColor=none;strokeColor=#6c8ebf;" parent="1" vertex="1">
                    <mxGeometry x="46" y="292" width="138" height="94" as="geometry"/>
                </mxCell>
                <mxCell id="28" style="edgeStyle=orthogonalEdgeStyle;rounded=1;comic=0;orthogonalLoop=1;jettySize=auto;html=1;" parent="1" source="23" edge="1">
                    <mxGeometry relative="1" as="geometry">
                        <mxPoint x="230" y="333.8000183105469" as="targetPoint"/>
                    </mxGeometry>
                </mxCell>
                <mxCell id="23" value="序列化" style="text;html=1;strokeColor=#d79b00;fillColor=#ffe6cc;align=center;verticalAlign=middle;whiteSpace=wrap;rounded=0;" parent="1" vertex="1">
                    <mxGeometry x="178" y="224" width="104" height="50" as="geometry"/>
                </mxCell>
                <mxCell id="30" style="edgeStyle=orthogonalEdgeStyle;rounded=1;comic=0;orthogonalLoop=1;jettySize=auto;html=1;entryX=0;entryY=0.5;entryDx=0;entryDy=0;" parent="1" source="25" target="29" edge="1">
                    <mxGeometry relative="1" as="geometry"/>
                </mxCell>
                <mxCell id="25" value="&lt;!--StartFragment--&gt;&lt;div style=&quot;color: rgb(36, 41, 46); background-color: rgb(255, 255, 255); font-weight: normal; font-size: 15px; line-height: 20px;&quot;&gt;&lt;div&gt;&lt;span style=&quot;color: #24292e;&quot;&gt;{&lt;/span&gt;&lt;/div&gt;&lt;div&gt;&lt;span style=&quot;color: #24292e;&quot;&gt;&amp;nbsp;&amp;nbsp;&amp;nbsp;&amp;nbsp;&lt;/span&gt;&lt;span style=&quot;color: #032f62;&quot;&gt;&quot;username&quot;&lt;/span&gt;&lt;span style=&quot;color: #24292e;&quot;&gt;:&lt;/span&gt;&lt;span style=&quot;color: #032f62;&quot;&gt;&quot;yuz&quot;&lt;/span&gt;&lt;span style=&quot;color: #24292e;&quot;&gt;,&amp;nbsp;&lt;/span&gt;&lt;/div&gt;&lt;div&gt;&lt;span style=&quot;color: #24292e;&quot;&gt;&amp;nbsp;&amp;nbsp;&amp;nbsp;&amp;nbsp;&lt;/span&gt;&lt;span style=&quot;color: #032f62;&quot;&gt;&quot;password&quot;&lt;/span&gt;&lt;span style=&quot;color: #24292e;&quot;&gt;:&amp;nbsp;&lt;/span&gt;&lt;span style=&quot;color: #032f62;&quot;&gt;&quot;123&quot;&lt;/span&gt;&lt;/div&gt;&lt;div&gt;&lt;span style=&quot;color: #24292e;&quot;&gt;}&lt;/span&gt;&lt;/div&gt;&lt;/div&gt;&lt;!--EndFragment--&gt;" style="text;whiteSpace=wrap;html=1;fillColor=none;strokeColor=#6c8ebf;" parent="1" vertex="1">
                    <mxGeometry x="272.00004882812505" y="292" width="161" height="94" as="geometry"/>
                </mxCell>
                <mxCell id="29" value="&lt;div style=&quot;color: rgb(36 , 41 , 46) ; background-color: rgb(255 , 255 , 255) ; font-weight: normal ; font-size: 15px ; line-height: 20px&quot;&gt;&lt;div&gt;&lt;span style=&quot;color: #24292e&quot;&gt;{&lt;/span&gt;&lt;/div&gt;&lt;div&gt;&lt;span style=&quot;color: #24292e&quot;&gt;&amp;nbsp;&amp;nbsp;&amp;nbsp;&amp;nbsp;&lt;/span&gt;&lt;span style=&quot;color: #032f62&quot;&gt;&quot;username&quot;&lt;/span&gt;&lt;span style=&quot;color: #24292e&quot;&gt;:&lt;/span&gt;&lt;span style=&quot;color: #032f62&quot;&gt;&quot;yuz&quot;&lt;/span&gt;&lt;/div&gt;&lt;div&gt;&lt;span style=&quot;color: #24292e&quot;&gt;}&lt;/span&gt;&lt;/div&gt;&lt;/div&gt;" style="text;whiteSpace=wrap;html=1;fillColor=none;strokeColor=#6c8ebf;" parent="1" vertex="1">
                    <mxGeometry x="508.00004882812505" y="292" width="161" height="94" as="geometry"/>
                </mxCell>
                <mxCell id="32" style="edgeStyle=orthogonalEdgeStyle;rounded=1;comic=0;orthogonalLoop=1;jettySize=auto;html=1;" parent="1" source="31" edge="1">
                    <mxGeometry relative="1" as="geometry">
                        <mxPoint x="475" y="331.4000244140625" as="targetPoint"/>
                    </mxGeometry>
                </mxCell>
                <mxCell id="31" value="Filter 过滤" style="text;html=1;strokeColor=#d79b00;fillColor=#ffe6cc;align=center;verticalAlign=middle;whiteSpace=wrap;rounded=0;" parent="1" vertex="1">
                    <mxGeometry x="423" y="220" width="104" height="50" as="geometry"/>
                </mxCell>
                <mxCell id="38" style="edgeStyle=orthogonalEdgeStyle;rounded=1;orthogonalLoop=1;jettySize=auto;html=1;entryX=1;entryY=0.5;entryDx=0;entryDy=0;" edge="1" parent="1" source="34" target="35">
                    <mxGeometry relative="1" as="geometry"/>
                </mxCell>
                <mxCell id="34" value="&lt;div style=&quot;color: rgb(36 , 41 , 46) ; background-color: rgb(255 , 255 , 255) ; font-weight: normal ; font-size: 15px ; line-height: 20px&quot;&gt;&lt;div&gt;&lt;span style=&quot;color: #d73a49&quot;&gt;class&lt;/span&gt;&lt;span style=&quot;color: #24292e&quot;&gt;&amp;nbsp;&lt;/span&gt;&lt;span style=&quot;color: #6f42c1&quot;&gt;UserSchema&lt;/span&gt;&lt;span style=&quot;color: #24292e&quot;&gt;(&lt;/span&gt;&lt;span style=&quot;color: #6f42c1&quot;&gt;Schema&lt;/span&gt;&lt;span style=&quot;color: #24292e&quot;&gt;):&lt;/span&gt;&lt;/div&gt;&lt;div&gt;&lt;span style=&quot;color: #24292e&quot;&gt;&amp;nbsp;&amp;nbsp;&amp;nbsp;&amp;nbsp;username&amp;nbsp;&lt;/span&gt;&lt;span style=&quot;color: #d73a49&quot;&gt;=&lt;/span&gt;&lt;span style=&quot;color: #24292e&quot;&gt;&amp;nbsp;fields.Str()&lt;/span&gt;&lt;/div&gt;&lt;div&gt;&lt;span style=&quot;color: #24292e&quot;&gt;&amp;nbsp;&amp;nbsp;&amp;nbsp;&amp;nbsp;password&amp;nbsp;&lt;/span&gt;&lt;span style=&quot;color: #d73a49&quot;&gt;=&lt;/span&gt;&lt;span style=&quot;color: #24292e&quot;&gt;&amp;nbsp;fields.Str()&lt;/span&gt;&lt;/div&gt;&lt;/div&gt;" style="text;whiteSpace=wrap;html=1;fillColor=none;strokeColor=#6c8ebf;" vertex="1" parent="1">
                    <mxGeometry x="298" y="460" width="204" height="93" as="geometry"/>
                </mxCell>
                <mxCell id="35" value="&lt;!--StartFragment--&gt;&lt;div style=&quot;color: rgb(36, 41, 46); background-color: rgb(255, 255, 255); font-weight: normal; font-size: 15px; line-height: 20px;&quot;&gt;&lt;div&gt;&lt;span style=&quot;color: #24292e;&quot;&gt;User(&lt;/span&gt;&lt;/div&gt;&lt;div&gt;&lt;span style=&quot;color: #24292e;&quot;&gt;&amp;nbsp;&amp;nbsp;&amp;nbsp;&amp;nbsp;&lt;/span&gt;&lt;span style=&quot;color: #e36209;&quot;&gt;username&lt;/span&gt;&lt;span style=&quot;color: #d73a49;&quot;&gt;=&lt;/span&gt;&lt;span style=&quot;color: #032f62;&quot;&gt;'yuz'&lt;/span&gt;&lt;span style=&quot;color: #24292e;&quot;&gt;,&lt;/span&gt;&lt;/div&gt;&lt;div&gt;&lt;span style=&quot;color: #24292e;&quot;&gt;&amp;nbsp;&amp;nbsp;&amp;nbsp;&amp;nbsp;&lt;/span&gt;&lt;span style=&quot;color: #e36209;&quot;&gt;password&lt;/span&gt;&lt;span style=&quot;color: #d73a49;&quot;&gt;=&lt;/span&gt;&lt;span style=&quot;color: #032f62;&quot;&gt;'123'&lt;/span&gt;&lt;/div&gt;&lt;div&gt;&lt;span style=&quot;color: #24292e;&quot;&gt;)&lt;/span&gt;&lt;/div&gt;&lt;/div&gt;&lt;!--EndFragment--&gt;" style="text;whiteSpace=wrap;html=1;fillColor=none;strokeColor=#6c8ebf;" vertex="1" parent="1">
                    <mxGeometry x="31" y="460" width="138" height="94" as="geometry"/>
                </mxCell>
                <mxCell id="37" style="edgeStyle=orthogonalEdgeStyle;rounded=1;orthogonalLoop=1;jettySize=auto;html=1;entryX=1;entryY=0.5;entryDx=0;entryDy=0;" edge="1" parent="1" source="36" target="34">
                    <mxGeometry relative="1" as="geometry"/>
                </mxCell>
                <mxCell id="36" value="&lt;!--StartFragment--&gt;&lt;div style=&quot;color: rgb(36, 41, 46); background-color: rgb(255, 255, 255); font-weight: normal; font-size: 15px; line-height: 20px;&quot;&gt;&lt;div&gt;&lt;span style=&quot;color: #24292e;&quot;&gt;{&lt;/span&gt;&lt;/div&gt;&lt;div&gt;&lt;span style=&quot;color: #24292e;&quot;&gt;&amp;nbsp;&amp;nbsp;&amp;nbsp;&amp;nbsp;&lt;/span&gt;&lt;span style=&quot;color: #032f62;&quot;&gt;&quot;username&quot;&lt;/span&gt;&lt;span style=&quot;color: #24292e;&quot;&gt;:&lt;/span&gt;&lt;span style=&quot;color: #032f62;&quot;&gt;&quot;yuz&quot;&lt;/span&gt;&lt;span style=&quot;color: #24292e;&quot;&gt;,&amp;nbsp;&lt;/span&gt;&lt;/div&gt;&lt;div&gt;&lt;span style=&quot;color: #24292e;&quot;&gt;&amp;nbsp;&amp;nbsp;&amp;nbsp;&amp;nbsp;&lt;/span&gt;&lt;span style=&quot;color: #032f62;&quot;&gt;&quot;password&quot;&lt;/span&gt;&lt;span style=&quot;color: #24292e;&quot;&gt;:&amp;nbsp;&lt;/span&gt;&lt;span style=&quot;color: #032f62;&quot;&gt;&quot;123&quot;&lt;/span&gt;&lt;/div&gt;&lt;div&gt;&lt;span style=&quot;color: #24292e;&quot;&gt;}&lt;/span&gt;&lt;/div&gt;&lt;/div&gt;&lt;!--EndFragment--&gt;" style="text;whiteSpace=wrap;html=1;fillColor=#ffffff;strokeColor=#6c8ebf;" vertex="1" parent="1">
                    <mxGeometry x="570.000048828125" y="460" width="161" height="94" as="geometry"/>
                </mxCell>
                <mxCell id="42" style="edgeStyle=orthogonalEdgeStyle;rounded=1;orthogonalLoop=1;jettySize=auto;html=1;entryX=0.5;entryY=0;entryDx=0;entryDy=0;" edge="1" parent="1" source="39" target="41">
                    <mxGeometry relative="1" as="geometry"/>
                </mxCell>
                <mxCell id="39" value="反序列化" style="text;html=1;strokeColor=#d79b00;fillColor=#ffe6cc;align=center;verticalAlign=middle;whiteSpace=wrap;rounded=0;" vertex="1" parent="1">
                    <mxGeometry x="184" y="404" width="104" height="50" as="geometry"/>
                </mxCell>
                <mxCell id="41" value="schema.load(json)" style="text;html=1;strokeColor=none;fillColor=none;align=center;verticalAlign=middle;whiteSpace=wrap;rounded=0;" vertex="1" parent="1">
                    <mxGeometry x="216" y="478" width="40" height="20" as="geometry"/>
                </mxCell>
            </root>
        </mxGraphModel>
    </diagram>
</mxfile>